<svg version="1.0" xmlns="http://www.w3.org/2000/svg"
     width="256pt" height="172pt" viewBox="0 0 256 172"
     preserveAspectRatio="xMidYMid meet">

  <g transform="translate(0,172) scale(0.2,-0.2)"
     fill="#177ec1" stroke="none">
    <path d="M504 563 c-65 -100 -69 -109 -56 -117 5 -3 9 2 8 12 -1 12 5 16 19
    14 15 -2 29 13 55 53 19 30 38 55 41 55 3 0 11 -11 17 -25 11 -23 52 -37 52
    -17 0 9 -69 112 -75 112 -3 0 -30 -39 -61 -87z"/>
    <path d="M710 481 c0 -18 28 -30 78 -33 l53 -3 -51 -75 c-29 -41 -55 -79 -60
    -83 -10 -11 -50 14 -50 30 0 23 -15 21 -16 -3 -1 -13 1 -24 5 -24 3 0 12 -14
    20 -31 18 -41 38 -47 59 -18 9 13 52 74 95 136 l77 113 -105 0 c-58 0 -105 -4
    -105 -9z"/>
    <path d="M670 400 c0 -5 5 -10 11 -10 5 0 8 -3 5 -8 -2 -4 2 -16 10 -27 21
    -29 42 -5 26 30 -11 24 -52 36 -52 15z"/>
    <path d="M505 380 c-28 -3 -51 -10 -52 -17 -2 -7 5 -13 16 -13 10 0 39 -3 65
    -6 47 -7 56 0 34 27 -10 10 -27 13 -63 9z"/>
  </g>
</svg>
